<svg xmlns="http://www.w3.org/2000/svg" viewBox="0 0 124.84 107.89"><defs><style>.cls-1{isolation:isolate;}.cls-2{fill:#b7b8b9;mix-blend-mode:multiply;}.cls-3{fill:#dbdcd9;}.cls-4{fill:#231f20;}.cls-5,.cls-6{fill:#fff;}.cls-6{opacity:0.1;}</style></defs><title>37404-O159EC</title><g class="cls-1"><g id="object"><ellipse class="cls-2" cx="65.97" cy="101.9" rx="41.22" ry="5.99"/><polygon class="cls-3" points="79.84 95.9 48.02 95.9 51.31 81.85 78.2 81.85 79.84 95.9"/><path class="cls-4" d="M370.82,120.86a5.48,5.48,0,0,0-5.49-5.48H251.46a5.48,5.48,0,0,0-5.49,5.48v66H370.82v-66Zm-5.49,61.37H251.46V120.86H365.33v61.37Z" transform="translate(-245.97 -115.38)"/><path class="cls-5" d="M246,186.89v8.5a5.48,5.48,0,0,0,5.49,5.48H365.33a5.48,5.48,0,0,0,5.49-5.48v-8.5H246Z" transform="translate(-245.97 -115.38)"/><rect class="cls-5" x="48.02" y="95.9" width="31.83" height="5.48"/><path class="cls-6" d="M251.46,182.23V120.86h39.72l-3.68-5.48h-36a5.48,5.48,0,0,0-5.49,5.48v66h89.6l-3.13-4.66h-81Z" transform="translate(-245.97 -115.38)"/></g></g></svg>